<svg width="18" height="19" viewBox="0 0 18 19" fill="none" xmlns="http://www.w3.org/2000/svg">
<path fill-rule="evenodd" clip-rule="evenodd" d="M5.87484 3.50041C5.01292 3.50041 4.18629 3.84281 3.57682 4.45228C2.96735 5.06175 2.62495 5.88838 2.62495 6.7503C2.62495 7.61223 2.96735 8.43885 3.57682 9.04833C4.18629 9.6578 5.01292 10.0002 5.87484 10.0002C6.73677 10.0002 7.56339 9.6578 8.17287 9.04833C8.78234 8.43885 9.12474 7.61223 9.12474 6.7503C9.12474 5.88838 8.78234 5.06175 8.17287 4.45228C7.56339 3.84281 6.73677 3.50041 5.87484 3.50041ZM4.2499 10.8127C3.38797 10.8127 2.56135 11.1551 1.95187 11.7645C1.3424 12.374 1 13.2006 1 14.0626V14.875C1 15.306 1.1712 15.7193 1.47594 16.0241C1.78067 16.3288 2.19399 16.5 2.62495 16.5H9.12474C9.5557 16.5 9.96902 16.3288 10.2738 16.0241C10.5785 15.7193 10.7497 15.306 10.7497 14.875V14.0626C10.7497 13.2006 10.4073 12.374 9.79782 11.7645C9.18834 11.1551 8.36172 10.8127 7.49979 10.8127H4.2499ZM10.1403 9.11054C10.5287 8.41181 10.7497 7.60746 10.7497 6.7503C10.7499 5.92438 10.5402 5.11194 10.1403 4.38925C10.6017 3.95274 11.1808 3.66096 11.8062 3.54999C12.4315 3.43902 13.0757 3.51372 13.659 3.76486C14.2424 4.01599 14.7394 4.43255 15.0886 4.96306C15.4378 5.49357 15.6239 6.11478 15.6239 6.7499C15.6239 7.38502 15.4378 8.00622 15.0886 8.53673C14.7394 9.06724 14.2424 9.48381 13.659 9.73494C13.0757 9.98608 12.4315 10.0608 11.8062 9.9498C11.1808 9.83883 10.6017 9.54706 10.1403 9.11054ZM11.9408 16.5C12.217 16.0223 12.3754 15.4673 12.3754 14.875V14.0626C12.377 12.8632 11.9348 11.7056 11.134 10.8127H13.9996C14.8615 10.8127 15.6881 11.1551 16.2976 11.7645C16.9071 12.374 17.2495 13.2006 17.2495 14.0626V14.875C17.2495 15.306 17.0783 15.7193 16.7735 16.0241C16.4688 16.3288 16.0555 16.5 15.6245 16.5H11.9408Z" fill="#EC0008"/>
</svg>
