<svg width="19" height="18" viewBox="0 0 19 18" fill="none" xmlns="http://www.w3.org/2000/svg">
<path d="M3.6 16.3636C3.16 16.3636 2.78347 16.2035 2.4704 15.8834C2.15733 15.5632 2.00053 15.1778 2 14.7273V3.27273C2 2.82273 2.1568 2.43764 2.4704 2.11745C2.784 1.79727 3.16053 1.63691 3.6 1.63636H6.96C7.13333 1.14545 7.42347 0.75 7.8304 0.45C8.23733 0.15 8.69386 0 9.2 0C9.70613 0 10.1629 0.15 10.5704 0.45C10.9779 0.75 11.2677 1.14545 11.44 1.63636H14.8C15.24 1.63636 15.6168 1.79673 15.9304 2.11745C16.244 2.43818 16.4005 2.82327 16.4 3.27273V8.75454C16.1467 8.63182 15.8867 8.52627 15.62 8.43791C15.3533 8.34954 15.08 8.28464 14.8 8.24318V3.27273H3.6V14.7273H8.44C8.48 15.0273 8.54347 15.3136 8.6304 15.5864C8.71733 15.8591 8.82053 16.1182 8.94 16.3636H3.6ZM3.6 13.9091V14.7273V3.27273V8.24318V8.18182V13.9091ZM5.2 13.0909H8.46C8.5 12.8045 8.56346 12.525 8.6504 12.2523C8.73733 11.9795 8.83386 11.7136 8.94 11.4545H5.2V13.0909ZM5.2 9.81818H10.08C10.5067 9.40909 10.9835 9.06818 11.5104 8.79545C12.0373 8.52273 12.6005 8.33864 13.2 8.24318V8.18182H5.2V9.81818ZM5.2 6.54545H13.2V4.90909H5.2V6.54545ZM9.2 2.65909C9.37333 2.65909 9.5168 2.601 9.6304 2.48482C9.744 2.36864 9.80053 2.22218 9.8 2.04545C9.79946 1.86873 9.74266 1.72227 9.6296 1.60609C9.51653 1.48991 9.37333 1.43182 9.2 1.43182C9.02666 1.43182 8.88346 1.48991 8.7704 1.60609C8.65733 1.72227 8.60053 1.86873 8.6 2.04545C8.59946 2.22218 8.65626 2.36891 8.7704 2.48564C8.88453 2.60236 9.02773 2.66018 9.2 2.65909ZM14 18C12.8933 18 11.9501 17.601 11.1704 16.803C10.3907 16.005 10.0005 15.0404 10 13.9091C9.99946 12.7778 10.3896 11.8132 11.1704 11.0152C11.9512 10.2172 12.8944 9.81818 14 9.81818C15.1056 9.81818 16.0491 10.2172 16.8304 11.0152C17.6117 11.8132 18.0016 12.7778 18 13.9091C17.9984 15.0404 17.6083 16.0053 16.8296 16.8038C16.0509 17.6024 15.1077 18.0011 14 18ZM13.6 16.3636H14.4V14.3182H16.4V13.5H14.4V11.4545H13.6V13.5H11.6V14.3182H13.6V16.3636Z" fill="white"/>
</svg>
