<svg width="24" height="24" viewBox="0 0 24 24" fill="none" xmlns="http://www.w3.org/2000/svg">
<path d="M5.99881 20.0173C5.99881 20.3509 6.00381 20.6631 5.99756 20.9748C5.98632 21.5705 5.56278 21.9898 4.96744 21.9967C4.64447 22.0004 4.32213 22.0017 3.99916 21.9967C3.44131 21.9867 3.02277 21.5674 3.0034 21.0054C2.99965 20.8909 2.99653 20.7758 3.0034 20.6612C3.03651 20.13 3.03776 19.6518 2.50989 19.2776C2.10884 18.9929 2.00764 18.4772 2.00514 17.9816C2.00014 16.991 1.99639 15.9997 2.00576 15.0091C2.01388 14.2144 2.37683 13.6236 3.0615 13.2181C3.17082 13.1536 3.26577 13.0166 3.30763 12.8927C3.73492 11.6336 4.15034 10.3701 4.56951 9.10791C5.0118 7.77686 6.10564 6.98148 7.5087 6.98023C10.486 6.97772 13.4639 6.97835 16.4412 6.98023C17.883 6.98023 18.9631 7.75621 19.4285 9.13357C19.8508 10.3833 20.2575 11.6392 20.686 12.8871C20.7335 13.0247 20.8584 13.1618 20.9834 13.2425C21.6168 13.6518 21.9723 14.2237 21.986 14.9759C22.0041 15.9979 21.9998 17.0198 21.9866 18.0417C21.9785 18.6875 21.6855 19.2063 21.1714 19.5836C21.0202 19.6944 20.9853 19.8045 20.989 19.9704C20.9971 20.3039 20.9959 20.6381 20.9902 20.9716C20.9796 21.5686 20.5561 21.9886 19.962 21.9954C19.639 21.9992 19.3167 22.0004 18.9937 21.9954C18.4352 21.986 18.0123 21.5674 17.9973 21.0061C17.9886 20.6838 17.9955 20.3615 17.9955 20.0167H5.99881V20.0173ZM5.39661 12.9678H18.5858C18.5602 12.8752 18.5439 12.8051 18.5215 12.7369C18.1985 11.7613 17.8761 10.785 17.5507 9.81068C17.3477 9.20241 17.0372 8.9815 16.3919 8.9815C14.4047 8.98088 12.4176 8.9815 10.4304 8.9815C9.48336 8.9815 8.53695 8.98088 7.58991 8.9815C6.94585 8.98213 6.646 9.20178 6.43922 9.81819C6.35989 10.0547 6.2793 10.29 6.20122 10.5266C5.93447 11.3338 5.66897 12.1411 5.39661 12.9678ZM16.9934 16.4641C16.9922 17.3114 17.6469 17.9885 18.4721 17.9941C19.2955 17.9991 19.997 17.312 19.9939 16.5016C19.9907 15.6699 19.3142 14.9878 18.4933 14.9878C17.6769 14.9878 16.9947 15.6587 16.9941 16.4641H16.9934ZM3.99979 16.4766C4.00354 17.3214 4.66322 17.9935 5.49094 17.9941C6.31304 17.9954 7.00895 17.3014 7.0002 16.4897C6.99083 15.6574 6.31241 14.9841 5.48781 14.9885C4.67321 14.9922 3.99667 15.6693 3.99979 16.4766Z" fill="url(#paint0_linear_269_406)"/>
<path d="M21.9914 7.36631C21.115 7.07469 20.271 6.79496 19.4271 6.51336C17.0214 5.70921 14.6169 4.90195 12.2075 4.10782C12.0675 4.06151 11.8795 4.08279 11.7364 4.13473C8.53363 5.29494 5.33332 6.46454 2.13238 7.63164C2.10427 7.64165 2.07303 7.64416 2.00432 7.6573C2.00432 6.98332 1.9987 6.32249 2.01306 5.66166C2.01431 5.59845 2.13113 5.50896 2.21109 5.47955C3.90089 4.85814 5.59382 4.24487 7.28612 3.62784C8.67794 3.12095 10.0698 2.61531 11.4591 2.10216C11.8052 1.9745 12.1338 1.96449 12.4886 2.08339C15.5727 3.1197 18.6599 4.14787 21.7484 5.17104C21.939 5.23424 22.0014 5.32185 21.9964 5.52336C21.9821 6.12537 21.9914 6.728 21.9914 7.36506V7.36631Z" fill="url(#paint1_linear_269_406)"/>
<defs>
<linearGradient id="paint0_linear_269_406" x1="5.74989" y1="7.96964" x2="13.9971" y2="23.524" gradientUnits="userSpaceOnUse">
<stop stop-color="#EC0008"/>
<stop offset="1" stop-color="#FF7242"/>
</linearGradient>
<linearGradient id="paint1_linear_269_406" x1="5.75226" y1="2.37325" x2="7.19374" y2="9.59022" gradientUnits="userSpaceOnUse">
<stop stop-color="#EC0008"/>
<stop offset="1" stop-color="#FF7242"/>
</linearGradient>
</defs>
</svg>
