<svg width="18" height="18" viewBox="0 0 18 18" fill="none" xmlns="http://www.w3.org/2000/svg">
<g clip-path="url(#clip0_249_268)">
<path d="M2.808 17C2.57934 17 2.38734 16.9227 2.232 16.768C2.07667 16.6133 1.99934 16.4213 2 16.192V7.30799C2 7.05199 2.05734 6.80966 2.172 6.58099C2.28667 6.35233 2.44467 6.16399 2.646 6.01599L8.031 1.93799C8.17967 1.83066 8.335 1.74999 8.497 1.69599C8.659 1.64199 8.828 1.61533 9.004 1.61599C9.18 1.61666 9.348 1.64333 9.508 1.69599C9.668 1.74866 9.82167 1.82933 9.969 1.93799L15.354 6.01499C15.556 6.16299 15.714 6.35166 15.828 6.58099C15.9427 6.80966 16 7.05199 16 7.30799V16.192C16 16.4213 15.9227 16.6133 15.768 16.768C15.6133 16.9227 15.4213 17 15.192 17H14.308C14.0793 17 13.8873 16.9227 13.732 16.768C13.5767 16.6133 13.4993 16.4213 13.5 16.192V11.79C13.5 11.5607 13.4227 11.3687 13.268 11.214C13.1133 11.0593 12.9213 10.982 12.692 10.982H5.308C5.07934 10.982 4.88734 11.0593 4.732 11.214C4.57667 11.3687 4.49934 11.5607 4.5 11.79V16.193C4.5 16.4223 4.42267 16.6143 4.268 16.769C4.11334 16.9237 3.92134 17.0007 3.692 17H2.808ZM6.308 15.98C6.07934 15.98 5.88734 15.903 5.732 15.749C5.57667 15.595 5.49934 15.403 5.5 15.173V12.75C5.5 12.5207 5.57734 12.3287 5.732 12.174C5.88667 12.0193 6.07867 11.942 6.308 11.942H11.692C11.9213 11.942 12.1133 12.0193 12.268 12.174C12.4227 12.3287 12.5 12.5203 12.5 12.749V15.173C12.5 15.4017 12.4227 15.5937 12.268 15.749C12.1133 15.9043 11.9213 15.9817 11.692 15.981L6.308 15.98Z" fill="#EC0008"/>
</g>
<defs>
<clipPath id="clip0_249_268">
<rect width="18" height="18" fill="white"/>
</clipPath>
</defs>
</svg>
