<svg width="24" height="24" viewBox="0 0 24 24" fill="none" xmlns="http://www.w3.org/2000/svg">
<path d="M12 22C11.45 22 10.9793 21.8043 10.588 21.413C10.1967 21.0217 10.0007 20.5507 10 20H14C14 20.55 13.8043 21.021 13.413 21.413C13.0217 21.805 12.5507 22.0007 12 22ZM4 19V17H6V10C6 8.61667 6.41667 7.38767 7.25 6.313C8.08333 5.23834 9.16667 4.534 10.5 4.2V3.5C10.5 3.08334 10.646 2.72934 10.938 2.438C11.23 2.14667 11.584 2.00067 12 2C12.416 1.99934 12.7703 2.14534 13.063 2.438C13.3557 2.73067 13.5013 3.08467 13.5 3.5V3.825C13.3333 4.15834 13.2083 4.50834 13.125 4.875C13.0417 5.24167 13 5.61667 13 6C13 7.38334 13.4877 8.56267 14.463 9.538C15.4383 10.5133 16.6173 11.0007 18 11V17H20V19H4ZM18 9C17.1667 9 16.4583 8.70834 15.875 8.125C15.2917 7.54167 15 6.83334 15 6C15 5.16667 15.2917 4.45834 15.875 3.875C16.4583 3.29167 17.1667 3 18 3C18.8333 3 19.5417 3.29167 20.125 3.875C20.7083 4.45834 21 5.16667 21 6C21 6.83334 20.7083 7.54167 20.125 8.125C19.5417 8.70834 18.8333 9 18 9Z" fill="url(#paint0_linear_246_155)"/>
<defs>
<linearGradient id="paint0_linear_246_155" x1="7.18771" y1="3.31954" x2="20.2279" y2="19.022" gradientUnits="userSpaceOnUse">
<stop stop-color="#EC0008"/>
<stop offset="1" stop-color="#FF7242"/>
</linearGradient>
</defs>
</svg>
