<svg width="24" height="24" viewBox="0 0 24 24" fill="none" xmlns="http://www.w3.org/2000/svg">
<g clip-path="url(#clip0_226_147)">
<path d="M13 21C13.5523 21 14 21.4477 14 22C14 22.5523 13.5523 23 13 23H11C10.4477 23 10 22.5523 10 22C10 21.4477 10.4477 21 11 21H13ZM12 1C13.1046 1 14 1.89543 14 3C14 3.09664 13.9898 3.1912 13.9766 3.28418C16.8799 4.13731 19 6.82054 19 10V18H20C20.5523 18 21 18.4477 21 19C21 19.5523 20.5523 20 20 20H4C3.44772 20 3 19.5523 3 19C3 18.4477 3.44772 18 4 18H5V10C5 6.82087 7.11957 4.1376 10.0225 3.28418C10.0092 3.19125 10 3.09659 10 3C10 1.89543 10.8954 1 12 1Z" fill="white"/>
</g>
<defs>
<clipPath id="clip0_226_147">
<rect width="24" height="24" fill="white"/>
</clipPath>
</defs>
</svg>
