<svg width="16" height="17" viewBox="0 0 16 17" fill="none" xmlns="http://www.w3.org/2000/svg">
<path fill-rule="evenodd" clip-rule="evenodd" d="M2 13.4C2 13.957 2.21071 14.4911 2.58579 14.8849C2.96086 15.2788 3.46957 15.5 4 15.5H12C12.5304 15.5 13.0391 15.2788 13.4142 14.8849C13.7893 14.4911 14 13.957 14 13.4V6.2796C13.9997 5.72293 13.7889 5.18916 13.414 4.7956L10.862 2.1146C10.4869 1.721 9.97829 1.49993 9.448 1.5H4C3.46957 1.5 2.96086 1.72125 2.58579 2.11508C2.21071 2.5089 2 3.04305 2 3.6V13.4ZM11.3333 7.8C11.3333 7.61435 11.2631 7.4363 11.1381 7.30503C11.013 7.17375 10.8435 7.1 10.6667 7.1C10.4899 7.1 10.3203 7.17375 10.1953 7.30503C10.0702 7.4363 10 7.61435 10 7.8V12C10 12.1857 10.0702 12.3637 10.1953 12.495C10.3203 12.6263 10.4899 12.7 10.6667 12.7C10.8435 12.7 11.013 12.6263 11.1381 12.495C11.2631 12.3637 11.3333 12.1857 11.3333 12V7.8ZM8.66667 9.2C8.66667 9.01435 8.59643 8.8363 8.4714 8.70503C8.34638 8.57375 8.17681 8.5 8 8.5C7.82319 8.5 7.65362 8.57375 7.5286 8.70503C7.40357 8.8363 7.33333 9.01435 7.33333 9.2V12C7.33333 12.1857 7.40357 12.3637 7.5286 12.495C7.65362 12.6263 7.82319 12.7 8 12.7C8.17681 12.7 8.34638 12.6263 8.4714 12.495C8.59643 12.3637 8.66667 12.1857 8.66667 12V9.2ZM6 10.5965C5.99912 10.4108 5.92803 10.2332 5.80238 10.1026C5.67673 9.97193 5.50681 9.89907 5.33 9.9C5.15319 9.90093 4.98397 9.97557 4.85957 10.1075C4.73517 10.2394 4.66578 10.4178 4.66667 10.6035L4.67333 12.0035C4.67422 12.1892 4.7453 12.3668 4.87095 12.4974C4.9966 12.6281 5.16652 12.7009 5.34333 12.7C5.52014 12.6991 5.68936 12.6244 5.81376 12.4925C5.93816 12.3606 6.00755 12.1822 6.00667 11.9965L6 10.5965Z" fill="url(#paint0_linear_763_846)"/>
<defs>
<linearGradient id="paint0_linear_763_846" x1="4.25015" y1="2.42368" x2="13.3639" y2="13.4904" gradientUnits="userSpaceOnUse">
<stop stop-color="#EC0008"/>
<stop offset="1" stop-color="#FF7242"/>
</linearGradient>
</defs>
</svg>
