<svg width="24" height="24" viewBox="0 0 24 24" fill="none" xmlns="http://www.w3.org/2000/svg">
<path d="M17.5 3.05042V4C17.4992 4.6628 17.2356 5.29825 16.7669 5.76693C16.2983 6.2356 15.6628 6.49924 15 6.5H9C8.33719 6.49924 7.70175 6.2356 7.23307 5.76693C6.76439 5.29825 6.50076 4.6628 6.5 4V3.05042C5.80188 3.16724 5.16773 3.52761 4.71007 4.06757C4.25241 4.60753 4.00084 5.29217 4 6V18C4 18.7956 4.31607 19.5587 4.87868 20.1213C5.44129 20.6839 6.20435 21 7 21H17C17.7956 21 18.5587 20.6839 19.1213 20.1213C19.6839 19.5587 20 18.7956 20 18V6C19.9992 5.29217 19.7476 4.60753 19.2899 4.06757C18.8323 3.52761 18.1981 3.16724 17.5 3.05042ZM16.7071 18.7071C16.6142 18.7999 16.504 18.8736 16.3827 18.9239C16.2614 18.9741 16.1313 19 16 19C15.8687 19 15.7386 18.9741 15.6173 18.9239C15.496 18.8736 15.3858 18.7999 15.2929 18.7071L12.2763 15.6905C11.7189 15.9595 11.0916 16.0484 10.4814 15.945C9.87124 15.8416 9.30831 15.5509 8.87068 15.1133C8.43304 14.6756 8.14237 14.1127 8.03895 13.5025C7.93553 12.8923 8.02447 12.265 8.29346 11.7076L9.57776 12.992C9.7653 13.1795 10.0197 13.2849 10.2849 13.2849C10.5501 13.2849 10.8045 13.1795 10.992 12.992C11.1795 12.8045 11.2849 12.5501 11.2849 12.2849C11.2849 12.0197 11.1795 11.7653 10.992 11.5778L9.7077 10.2935C10.2651 10.0245 10.8924 9.93554 11.5026 10.039C12.1128 10.1424 12.6757 10.4331 13.1133 10.8707C13.5509 11.3083 13.8416 11.8713 13.945 12.4815C14.0484 13.0917 13.9595 13.7189 13.6905 14.2763L16.7071 17.2929C16.8 17.3858 16.8736 17.496 16.9239 17.6173C16.9741 17.7386 17 17.8687 17 18C17 18.1313 16.9741 18.2613 16.9239 18.3827C16.8736 18.504 16.8 18.6142 16.7071 18.7071Z" fill="url(#paint0_linear_246_135)"/>
<path d="M9 5H15C15.2652 5 15.5196 4.89464 15.7071 4.70711C15.8946 4.51957 16 4.26522 16 4V3H14C14 2.46957 13.7893 1.96086 13.4142 1.58579C13.0391 1.21071 12.5304 1 12 1C11.4696 1 10.9609 1.21071 10.5858 1.58579C10.2107 1.96086 10 2.46957 10 3H8V4C8 4.26522 8.10536 4.51957 8.29289 4.70711C8.48043 4.89464 8.73478 5 9 5Z" fill="url(#paint1_linear_246_135)"/>
<defs>
<linearGradient id="paint0_linear_246_135" x1="7.0002" y1="6.10272" x2="16.958" y2="20.2543" gradientUnits="userSpaceOnUse">
<stop stop-color="#EC0008"/>
<stop offset="1" stop-color="#FF7242"/>
</linearGradient>
<linearGradient id="paint1_linear_246_135" x1="9.5001" y1="1.26391" x2="11.1655" y2="5.98247" gradientUnits="userSpaceOnUse">
<stop stop-color="#EC0008"/>
<stop offset="1" stop-color="#FF7242"/>
</linearGradient>
</defs>
</svg>
