<svg width="18" height="18" viewBox="0 0 18 18" fill="none" xmlns="http://www.w3.org/2000/svg">
<g clip-path="url(#clip0_267_47)">
<g clip-path="url(#clip1_267_47)">
<path d="M16.3631 2.58712C16.5462 2.77022 16.5456 3.08768 16.3612 3.3514L13.5464 7.38155C13.2964 7.74089 12.8201 7.84462 12.5701 7.59528L11.9833 7.00785L11.3096 7.68152L10.3315 6.70413L11.0052 6.03046L10.4184 5.44303C10.1684 5.19306 10.2721 4.71749 10.6315 4.4669L14.6626 1.65223C14.9257 1.4685 15.2438 1.46787 15.4269 1.65098L16.3631 2.58712ZM6.21539 9.84251L8.17156 11.7985L3.67174 16.298C3.54174 16.4274 3.36579 16.5 3.18238 16.5C2.99897 16.5 2.82303 16.4274 2.69303 16.298L1.71556 15.3194C1.58638 15.1894 1.51387 15.0136 1.51387 14.8304C1.51387 14.6471 1.58638 14.4713 1.71556 14.3414L6.21539 9.84251ZM16.285 14.4232C16.414 14.5532 16.4864 14.7288 16.4864 14.9119C16.4864 15.095 16.414 15.2707 16.285 15.4006L15.4019 16.2843C15.2719 16.4136 15.096 16.4862 14.9126 16.4862C14.7291 16.4862 14.5532 16.4136 14.4232 16.2843L5.98852 7.85025C4.98419 8.24583 3.80673 8.12584 2.90989 7.49154C2.38268 7.12476 1.97447 6.6116 1.73567 6.01543C1.49688 5.41926 1.43796 4.76621 1.5662 4.13694C1.61744 3.88572 1.93681 3.7976 2.11805 3.97945L3.39237 5.2543C3.64861 5.51052 4.06735 5.51052 4.32296 5.2543L5.25418 4.32316C5.51042 4.06757 5.51042 3.64887 5.25418 3.39265L3.98173 2.11967C3.79798 1.93594 3.89111 1.61536 4.14547 1.56474C4.67597 1.45777 5.2247 1.48367 5.74277 1.64014C6.26083 1.7966 6.73215 2.07877 7.11473 2.46151C7.56664 2.91409 7.8767 3.48866 8.00692 4.11482C8.13713 4.74097 8.08184 5.39151 7.84783 5.98672L16.285 14.4232Z" fill="#EC0008"/>
</g>
</g>
<defs>
<clipPath id="clip0_267_47">
<rect width="18" height="18" fill="white"/>
</clipPath>
<clipPath id="clip1_267_47">
<rect width="24" height="24" fill="white" transform="translate(-3 -3)"/>
</clipPath>
</defs>
</svg>
