<svg width="24" height="24" viewBox="0 0 24 24" fill="none" xmlns="http://www.w3.org/2000/svg">
<path d="M9.77755 2.24857C11.2595 1.91038 12.7788 1.92037 14.2219 2.24955L14.3859 2.30326C14.7 2.43461 14.9262 2.71786 14.9846 3.05326L14.9992 3.22513L15.0002 5.07181C15.0003 5.84145 15.8336 6.3226 16.5002 5.93802L18.1018 5.01322L18.257 4.94095C18.6302 4.804 19.0565 4.90023 19.3342 5.19974C19.8324 5.73809 20.2792 6.3403 20.6604 7.00052C20.9936 7.57782 21.2634 8.17528 21.4709 8.7847L21.5559 9.0474C21.6939 9.49324 21.5058 9.97588 21.1018 10.2095L19.5002 11.1333C18.8336 11.5182 18.8336 12.4808 19.5002 12.8658L21.0988 13.7896C21.5027 14.0228 21.6922 14.5041 21.5549 14.9497C21.1185 16.3642 20.3681 17.6859 19.3342 18.8003C19.0169 19.1422 18.5057 19.2199 18.1018 18.9869L16.5002 18.062C15.8336 17.6772 15.0003 18.1585 15.0002 18.9283L14.9992 20.7779C14.999 21.244 14.6773 21.6475 14.2229 21.7515C12.7408 22.0897 11.2207 22.0788 9.77755 21.7495C9.32286 21.6457 9.00028 21.2413 9.00021 20.7749L8.99923 18.9283C8.99909 18.1586 8.16584 17.6772 7.49923 18.062L5.89864 18.9869C5.49433 19.2201 4.98241 19.1418 4.66524 18.7994C4.16726 18.2612 3.72108 17.6604 3.34005 17.0005C2.95887 16.3403 2.66066 15.6524 2.44356 14.9517L2.40646 14.7837C2.3557 14.3896 2.54503 13.9949 2.89864 13.7906L4.49923 12.8667C5.16589 12.4818 5.1659 11.5192 4.49923 11.1343L2.9006 10.2105C2.49666 9.97725 2.30819 9.49605 2.44552 9.05033C2.88196 7.63579 3.6322 6.31424 4.66622 5.19974L4.79317 5.08353C5.10904 4.843 5.54425 4.80949 5.89767 5.01322L7.50021 5.93802L7.62716 5.99955C8.26791 6.26066 9.00015 5.79331 9.00021 5.07181V3.2222L9.01388 3.0513C9.08184 2.6599 9.37956 2.33942 9.77755 2.24857ZM12.0002 8.99955C10.3435 8.99955 9.00044 10.3429 9.00021 11.9995C9.00021 13.6564 10.3434 14.9995 12.0002 14.9995C13.657 14.9994 15.0002 13.6563 15.0002 11.9995C15 10.343 13.6568 8.99965 12.0002 8.99955Z" fill="url(#paint0_linear_246_145)"/>
<defs>
<linearGradient id="paint0_linear_246_145" x1="5.99902" y1="3.31845" x2="18.6627" y2="20.5416" gradientUnits="userSpaceOnUse">
<stop stop-color="#EC0008"/>
<stop offset="1" stop-color="#FF7242"/>
</linearGradient>
</defs>
</svg>
