<svg width="18" height="18" viewBox="0 0 18 18" fill="none" xmlns="http://www.w3.org/2000/svg">
<g clip-path="url(#clip0_249_299)">
<path d="M8.99999 18C6.51 18 4.3878 17.1222 2.6334 15.3666C0.879001 13.611 0.00120123 11.4888 1.22867e-06 9C-0.00119877 6.5112 0.876601 4.389 2.6334 2.6334C4.3902 0.8778 6.5124 0 8.99999 0C11.4876 0 13.6104 0.8778 15.3684 2.6334C17.1264 4.389 18.0036 6.5112 18 9C17.9964 11.4888 17.1186 13.6116 15.3666 15.3684C13.6146 17.1252 11.4924 18.0024 8.99999 18ZM12.015 13.275L13.275 12.015L9.89999 8.64V3.6H8.1V9.36L12.015 13.275Z" fill="#EC0008"/>
</g>
<defs>
<clipPath id="clip0_249_299">
<rect width="18" height="18" fill="white"/>
</clipPath>
</defs>
</svg>
